ENGLISH SUBS INCLUDED

Title: Abashiri Family (2009)
Year: 2010
Country: Japan
Language: Japanese
Film Genre: Action | Comedy
Original Title: Abashiri ikka: The movie
Subtitles: English (idx, sub / srt)
Director: Teruyoshi Ishii
Cast: Mai Endô, Teppei Enomoto, Kenji Gôda, Inori Imamura, Kyoji Kamui, Norihito Komori,,,
IMDB: http://www.imdb.com/title/tt1524516/
NFO: YES
Source: DVD5 NTSC (from marukomu)
Release Date: 2010 / 11 / 07



Abashiri.Family.2009.DVDRip.XviD.AC3-BAUM 10


Set in the near future, the story centers around a family of vicious gangsters who live within an area of Japan not governed by laws called Bangaichi. Kikunosuke Abashiri (Erica Tonooka) is now attending Paradise Academy, but has lost all memory of her past other than occasional dreams of happy times with her father Daemon (Shun Sugata) and three brothers. But are they all just a figment of her imagination?

One day a new transfer student named Yuki (Maria Yoshikawa) starts getting picked on by bullies, but when Kikunosuke tries to defend her with violence she gets incapacitated by extreme headaches. It turns out Kikunosuke had been brainwashed by Principal Danjuro Namakubi (Jiro Sato) after the Abashiri family clashed with Danjuro’s family a year earlier. In fact, Bangaichi had been created to jail the rest of the family while Danjuro’s daughter Mademoiselle Honey (Miwa) experimented on Kikunosuke and implanted her with a mind-control chip to cancel out her violent impulses. Now that she’s essentially been tamed, will Kikunosuke ever be able to escape Danjuro’s school and be reunited with her family?

Complete name : Abashiri.Family.2009.DVDRip.XviD.AC3-BAUM.avi
Format : AVI
Format/Info : Audio Video Interleave
Format profile : OpenDML
File size : 697 MiB
Duration : 1h 9mn
Overall bit rate : 1 401 Kbps
Writing application : AVI-Mux GUI 1.17.8.3, Feb 16 201019:42:50



Abashiri.Family.2009.DVDRip.XviD.AC3-BAUM 12


Video #0
ID : 0
Format : MPEG-4 Visual
Format profile : Advanced Simple@L5
Format settings, BVOP : Yes
Format settings, QPel : No
Format settings, GMC : No warppoints
Format settings, Matrix : Default (H.263)
Codec ID : XVID
Codec ID/Hint : XviD
Duration : 1h 9mn
Bit rate : 1 204 Kbps
Width : 720 pixels
Height : 400 pixels
Display aspect ratio : 16:9
Frame rate : 23.976 fps
Color space : YUV
Chroma subsampling : 4:2:0
Bit depth : 8 bits
Scan type : Progressive
Bits/(Pixel*Frame) : 0.174
Stream size : 599 MiB (86%)
Writing library : XviD 1.2.1 (UTC 2008-12-04)

Audio #1
ID : 1
Format : AC-3
Format/Info : Audio Coding 3
Mode extension : CM (complete main)
Codec ID : 2000
Duration : 1h 9mn
Bit rate mode : Constant
Bit rate : 192 Kbps
Channel(s) : 2 channels
Channel positions : Front: L R
Sampling rate : 48.0 KHz
Bit depth : 16 bits
Stream size : 95.5 MiB (14%)
Alignment : Aligned on interleaves
Interleave, duration : 64 ms (1.53 video frames)
Interleave, preload duration : 192 ms
Title : VTS_01_1 T80 2_0ch 192Kbps DELAY 0ms

Screenshots




